<svg width="30" height="30" viewBox="0 0 30 30" fill="none" xmlns="http://www.w3.org/2000/svg">
<path fill-rule="evenodd" clip-rule="evenodd" d="M28.9566 6.20828C29.2399 6.49098 29.399 6.87479 29.399 7.27469C29.399 7.67395 29.2399 8.0584 28.9553 8.34046L27.0228 10.273C28.0653 12.1489 28.6604 14.3068 28.6604 16.6013C28.6604 23.8053 22.7996 29.6667 15.5949 29.6667C8.39023 29.6667 2.52884 23.806 2.52884 16.6013C2.52884 15.1407 2.77162 13.7369 3.21596 12.4245C3.21917 12.4226 3.22304 12.4213 3.22626 12.42C3.47934 11.6723 3.79746 10.9543 4.17611 10.2736L2.91136 9.00825L2.42967 9.50217C2.24163 9.69343 1.98598 9.80355 1.71744 9.80613C1.44827 9.80999 1.18939 9.70631 0.997489 9.51827L0.638156 9.16795C0.238253 8.77642 0.231169 8.13568 0.622057 7.73577L6.06615 2.16288C6.25355 1.97098 6.50984 1.86151 6.77838 1.85829C7.04691 1.85442 7.30579 1.9581 7.49769 2.14614L7.85638 2.49775C8.25693 2.88863 8.26401 3.53003 7.87312 3.92993L7.37662 4.43866L8.56474 5.61133C8.80687 5.45484 9.05802 5.30866 9.31303 5.16892C9.31303 5.16635 9.31303 5.16441 9.31368 5.16184C10.2783 4.63378 11.3248 4.22036 12.386 3.94345V1.80226C12.386 1.0192 12.9869 0.333374 13.7706 0.333374H17.4193C18.2036 0.333374 18.798 1.0192 18.798 1.80226V3.94345C20.1626 4.29506 21.4743 4.86432 22.6341 5.61133L24.4495 3.82045C25.0393 3.23766 25.9892 3.24088 26.5752 3.82689L28.9566 6.20828ZM6.68114 16.551C6.68114 21.449 10.6525 25.4204 15.5511 25.4204C20.4498 25.4204 24.4205 21.449 24.4205 16.551C24.4205 11.6524 20.4498 7.68104 15.5511 7.68104C10.6525 7.68104 6.68114 11.6524 6.68114 16.551ZM16.8889 10.6541V14.0375C17.8433 14.5031 18.4641 15.4768 18.4647 16.6005C18.4647 18.1795 17.1652 19.4584 15.5868 19.4584C14.0078 19.4584 12.7192 18.1782 12.7192 16.6005C12.7192 15.4761 13.342 14.5031 14.297 14.0375V10.6541C14.297 9.95797 14.8965 9.39321 15.5926 9.39321C16.2894 9.39321 16.8889 9.95797 16.8889 10.6541Z" fill="url(#paint0_linear)"/>
<defs>
<linearGradient id="paint0_linear" x1="28.0428" y1="15.0004" x2="0.333684" y2="15.0004" gradientUnits="userSpaceOnUse">
<stop stop-color="#5B53D5"/>
<stop offset="1" stop-color="#8F45BB"/>
</linearGradient>
</defs>
</svg>
