<svg width="34" height="34" viewBox="0 0 34 34" fill="none" xmlns="http://www.w3.org/2000/svg">
<path fill-rule="evenodd" clip-rule="evenodd" d="M19.8181 1.99219H20.9844C22.6322 1.99219 23.9727 3.33266 23.9727 4.98047C23.9727 5.53104 23.5271 5.97656 22.9766 5.97656H11.0234C10.4729 5.97656 10.0273 5.53104 10.0273 4.98047C10.0273 3.33266 11.3678 1.99219 13.0156 1.99219H14.1819C14.5934 0.832668 15.7014 0 17 0C18.2986 0 19.4066 0.832668 19.8181 1.99219ZM25.864 3.98438H26.9609C28.6087 3.98438 29.9492 5.32485 29.9492 6.97266V31.0117C29.9492 32.6595 28.6087 34 26.9609 34H7.03906C5.39126 34 4.05078 32.6595 4.05078 31.0117V6.97266C4.05078 5.32485 5.39126 3.98438 7.03906 3.98438H8.13596C8.07028 4.30638 8.03516 4.63941 8.03516 4.98047C8.03516 6.62827 9.37563 7.96875 11.0234 7.96875H22.9766C24.6244 7.96875 25.9648 6.62827 25.9648 4.98047C25.9648 4.63941 25.9297 4.30638 25.864 3.98438ZM10.0273 27.8906H14.0117C14.5623 27.8906 15.0078 27.4451 15.0078 26.8945C15.0078 26.344 14.5623 25.8984 14.0117 25.8984H10.0273C9.47677 25.8984 9.03125 26.344 9.03125 26.8945C9.03125 27.4451 9.47677 27.8906 10.0273 27.8906ZM10.0273 20.918H14.0117C14.5623 20.918 15.0078 20.4724 15.0078 19.9219C15.0078 19.3713 14.5623 18.9258 14.0117 18.9258H10.0273C9.47677 18.9258 9.03125 19.3713 9.03125 19.9219C9.03125 20.4724 9.47677 20.918 10.0273 20.918ZM10.0273 13.9453H14.0117C14.5623 13.9453 15.0078 13.4998 15.0078 12.9492C15.0078 12.3986 14.5623 11.9531 14.0117 11.9531H10.0273C9.47677 11.9531 9.03125 12.3986 9.03125 12.9492C9.03125 13.4998 9.47677 13.9453 10.0273 13.9453ZM23.6808 29.591C24.0699 29.2019 24.0699 28.5716 23.6808 28.1825L22.3929 26.8945L23.6809 25.6066C24.0699 25.2175 24.0699 24.5871 23.6809 24.198C23.2918 23.809 22.6614 23.809 22.2723 24.198L20.9844 25.486L19.6964 24.198C19.3074 23.809 18.677 23.809 18.2879 24.198C17.8988 24.5871 17.8988 25.2175 18.2879 25.6066L19.5758 26.8945L18.2879 28.1825C17.8989 28.5716 17.8989 29.2019 18.2879 29.591C18.4825 29.7856 18.7374 29.8829 18.9922 29.8829C19.247 29.8829 19.5019 29.7856 19.6964 29.591L20.9844 28.3031L22.2723 29.591C22.4668 29.7856 22.7218 29.8829 22.9766 29.8829C23.2314 29.8829 23.4862 29.7856 23.6808 29.591ZM21.6886 21.6222L24.6769 18.6339C25.066 18.2449 25.066 17.6145 24.677 17.2254C24.2879 16.8363 23.6575 16.8363 23.2684 17.2254L20.9844 19.5094L19.6965 18.2215C19.3074 17.8324 18.677 17.8324 18.2879 18.2215C17.8989 18.6106 17.8989 19.2409 18.2879 19.63L20.2801 21.6222C20.4746 21.8168 20.7296 21.9141 20.9844 21.9141C21.2392 21.9141 21.494 21.8168 21.6886 21.6222ZM21.6886 15.6456L24.6769 12.6574C25.066 12.2683 25.066 11.6379 24.677 11.2488C24.2879 10.8597 23.6575 10.8597 23.2684 11.2488L20.9844 13.5329L19.6965 12.2449C19.3074 11.8558 18.677 11.8558 18.2879 12.2449C17.8989 12.634 17.8989 13.2644 18.2879 13.6535L20.2801 15.6456C20.4746 15.8402 20.7296 15.9375 20.9844 15.9375C21.2392 15.9375 21.494 15.8402 21.6886 15.6456Z" fill="url(#paint0_linear)"/>
<defs>
<linearGradient id="paint0_linear" x1="28.7408" y1="17.0005" x2="4.05095" y2="17.0005" gradientUnits="userSpaceOnUse">
<stop stop-color="#5B53D5"/>
<stop offset="1" stop-color="#8F45BB"/>
</linearGradient>
</defs>
</svg>
