<svg width="200" height="80" viewBox="0 0 200 80" fill="none" xmlns="http://www.w3.org/2000/svg">
<g clip-path="url(#clip0)">
<path fill-rule="evenodd" clip-rule="evenodd" d="M125.077 36.3383C126.025 33.8938 127.219 31.8806 128.588 29.8097C130.894 26.3223 131.111 26.736 133.013 24.5397C134.447 22.885 141.834 16.705 144.869 16.725C147.382 16.7401 146.213 17.6276 149.052 16.3765C159.499 11.7709 184.203 5.94436 193.433 11.9439C198.135 15.0001 197.315 19.9843 198.015 22.3034C198.387 23.5369 198.925 24.3918 199.279 25.8384C200.79 32.001 200.224 35.6238 193.886 34.4805C189.673 33.7208 192.074 25.7607 193.006 23.4291C193.966 21.0323 193.178 17.7178 191.645 16.1735C185.359 9.85548 160.162 16.7401 150.947 20.3528C148.437 21.3381 149.476 20.7439 148.399 22.6469C146.886 25.3295 140.062 26.8588 135.387 34.2047C128.099 45.6548 138.551 54.9562 145.539 59.0579C150.743 62.1091 146.948 62.2194 150.905 63.7462C153.211 64.6363 155.58 65.5012 158.031 66.2684C165.286 68.5424 185.479 72.98 191.326 68.2465C192.939 66.9403 193.844 63.0116 192.889 60.3917C191.959 57.8369 189.571 50.1325 194.218 49.5809C195.567 49.4205 197.669 49.3327 198.706 50.0322C201.778 52.1031 198.489 60.2062 197.898 62.0138C197.467 63.3351 197.547 64.8318 197.23 66.2007C196.559 69.0914 195.138 71.0044 193.435 72.1125C184.088 78.1948 160.008 72.5237 148.786 67.5897C143.672 65.3408 148.501 71.4431 135.502 61.8709C134.158 60.8806 134.17 60.7352 133.013 59.5067C131.29 57.6765 130.041 56.7764 128.431 54.0587C128.139 53.5673 124.972 47.9513 124.91 47.9087C124.579 47.6705 121.908 46.9911 121.071 46.5348C114.414 42.912 119.235 37.3111 125.077 36.3383Z" fill="#111111"/>
<path d="M113.92 42.0772C113.92 46.402 113.124 50.4811 111.534 54.3094C109.943 58.1403 107.627 61.5425 104.585 64.516C101.541 67.4919 98.0402 69.786 94.0784 71.3955C90.1166 73.0076 86.0102 73.8124 81.7617 73.8124C77.5131 73.8124 73.4192 73.0076 69.4873 71.3955C65.553 69.7834 62.0649 67.4894 59.0206 64.516C55.9489 61.5124 53.6127 58.0977 52.0095 54.2668C50.4064 50.4384 49.6035 46.3744 49.6035 42.0747C49.6035 37.7499 50.4039 33.6658 52.0095 29.8223C53.6152 25.9789 55.9514 22.5567 59.0206 19.5531C62.0349 16.6047 65.518 14.3333 69.4674 12.7337C73.4142 11.1367 77.5131 10.3369 81.7617 10.3369C86.0376 10.3369 90.1565 11.1367 94.1183 12.7337C98.0801 14.3308 101.568 16.6047 104.585 19.5531C107.627 22.5291 109.946 25.9388 111.534 29.7822C113.124 33.6256 113.92 37.7248 113.92 42.0772ZM81.7617 67.0356C85.0528 67.0356 88.1843 66.4089 91.1588 65.1553C94.1333 63.9017 96.8135 62.0765 99.1996 59.6797C101.558 57.3105 103.353 54.6253 104.588 51.6218C105.822 48.6183 106.44 45.4367 106.44 42.0747C106.44 38.685 105.817 35.4634 104.568 32.4047C103.321 29.346 101.531 26.6458 99.1996 24.3041C96.841 21.9349 94.1732 20.1298 91.1987 18.8912C88.2242 17.6502 85.0777 17.0309 81.7592 17.0309C78.4132 17.0309 75.2468 17.6502 72.2573 18.8912C69.2679 20.1298 66.6226 21.9349 64.3188 24.3041C61.9601 26.7009 60.165 29.4137 58.9308 32.4448C57.6967 35.4759 57.0808 38.685 57.0808 42.0747C57.0808 45.4367 57.6917 48.6032 58.9109 51.5792C60.1301 54.5551 61.9352 57.2553 64.3188 59.6797C66.7323 62.1041 69.4125 63.9368 72.3596 65.1753C75.3116 66.4164 78.4431 67.0356 81.7617 67.0356Z" fill="#343A40"/>
<path d="M125.077 36.3384C125.077 36.3384 118.809 36.6819 116.648 42.0722C114.483 47.4625 125.269 48.5205 125.269 48.5205L125.077 36.3384Z" stroke="#155D97" stroke-width="0.5669" stroke-miterlimit="22.9256"/>
<path fill-rule="evenodd" clip-rule="evenodd" d="M125.077 36.3383C125.077 36.3383 119.802 36.6292 117.261 40.8462C116.889 41.127 116.648 41.5732 116.648 42.0722C116.274 43.0023 116.286 43.8021 116.563 44.4915C115.301 62.7109 99.9103 76.7533 81.5798 76.7533C68.6945 76.7533 56.7568 69.7734 50.6059 58.3535C49.434 56.1773 48.4168 53.8757 47.4693 51.5892C46.3598 48.9091 45.3351 46.1889 44.3602 43.4561C42.5875 38.4995 40.9619 33.4777 39.4261 28.4434C38.7205 26.1268 38.0224 23.7977 37.3691 21.4635C37.1622 20.7189 36.4516 20.2526 35.6886 20.3579C34.9282 20.4632 34.3697 21.1075 34.3697 21.8797V76.9313H21.6665V22.1605C21.6665 21.7368 21.5169 21.3708 21.2177 21.0724C20.9185 20.7741 20.5545 20.6237 20.1331 20.6237L7.52219 20.6989L7.53466 16.3841C7.7416 16.3991 7.95103 16.4117 8.16047 16.4117C12.6658 16.4117 16.3209 12.7387 16.3209 8.20584C16.3184 3.67295 12.6658 0 8.16047 0C3.65264 0 0 3.67295 0 8.20584C0 11.3899 1.80513 14.1477 4.44051 15.5091L4.42306 22.1931C4.42057 23.033 5.08876 23.7225 5.91653 23.75C6.02124 23.7701 6.13095 23.7801 6.24813 23.7801L18.6123 23.7049V78.4682C18.6123 79.3131 19.2979 80.005 20.1406 80.005H35.8981C36.7383 80.005 37.4265 79.3156 37.4265 78.4682V32.3219C38.703 36.4035 40.0469 40.4701 41.4855 44.494C42.4778 47.2745 43.52 50.0423 44.6495 52.7701C45.6368 55.1519 46.6964 57.5462 47.9206 59.8151C54.6051 72.2279 67.5751 79.8245 81.5798 79.8245C100.753 79.8245 116.939 65.6868 119.383 46.9937C121.966 48.1971 125.269 48.5205 125.269 48.5205L125.077 36.3383Z" fill="#155D97"/>
<path d="M9.90565 18.164C9.76852 18.164 9.63139 18.159 9.49426 18.1515C9.37708 18.1439 9.27734 18.2367 9.27734 18.3545C9.27734 18.4674 9.36959 18.5601 9.48179 18.5601H24.1946C24.3068 18.5601 24.399 18.6529 24.399 18.7657V73.9946C24.399 74.1074 24.4913 74.2002 24.6035 74.2002H31.4275C31.5397 74.2002 31.632 74.1074 31.632 73.9946V18.7682C31.632 18.6554 31.7242 18.5626 31.8364 18.5626H48.3593C48.4715 18.5626 48.5638 18.4699 48.5638 18.357V11.9087C48.5638 11.7959 48.4715 11.7031 48.3593 11.7031H18.0387C17.9439 11.7031 17.8642 11.7683 17.8417 11.8611C16.989 15.4764 13.7602 18.164 9.90565 18.164Z" fill="#343A40"/>
<path fill-rule="evenodd" clip-rule="evenodd" d="M8.16045 2.63257C11.2197 2.63257 13.7005 5.12716 13.7005 8.20341C13.7005 11.2797 11.2197 13.7768 8.16045 13.7768C5.10121 13.7768 2.61792 11.2822 2.61792 8.20592C2.61792 5.12967 5.09872 2.63257 8.16045 2.63257Z" fill="white"/>
<path fill-rule="evenodd" clip-rule="evenodd" d="M8.16041 4.57056C10.1575 4.57056 11.7756 6.19768 11.7756 8.20589C11.7756 10.2141 10.1575 11.8412 8.16041 11.8412C6.1633 11.8412 4.54517 10.2141 4.54517 8.20589C4.54517 6.19768 6.1633 4.57056 8.16041 4.57056Z" fill="#343A40"/>
</g>
<defs>
<clipPath id="clip0">
<rect width="200" height="80" fill="white"/>
</clipPath>
</defs>
</svg>
