<svg width="37" height="38" viewBox="0 0 37 38" fill="none" xmlns="http://www.w3.org/2000/svg">
<path fill-rule="evenodd" clip-rule="evenodd" d="M32.0008 0.596234C32.0008 0.596234 29.0243 21.3027 28.9315 38.0003H5.99734C5.99734 38.0003 5.99734 37.9926 5.99581 37.9787C5.98973 37.9106 5.97299 37.6846 5.9456 37.3193C5.77973 35.0378 5.26538 27.3345 5.26234 18.868C5.25929 14.5775 5.38864 10.0889 5.76147 6.01198C5.8969 4.50752 6.06734 3.05723 6.27581 1.69517C6.27581 1.69517 18.6323 -0.131232 30.9432 0.0127136L32.0008 0.596234Z" fill="url(#paint0_radial)"/>
<path fill-rule="evenodd" clip-rule="evenodd" d="M30.9417 0.00978851C30.9417 0.00978851 28.5723 16.2121 28.1691 38.0005H28.9315C28.9315 38.0005 29.3986 18.0122 32.0008 0.596404L30.9417 0.00978851Z" fill="url(#paint1_linear)"/>
<path opacity="0.5" fill-rule="evenodd" clip-rule="evenodd" d="M29.0243 0.78344L26.8847 37.3827H5.95013L6.62579 2.76153L29.0243 0.78344Z" fill="#7E6DA5"/>
<path fill-rule="evenodd" clip-rule="evenodd" d="M29.0182 1.12545C28.8706 1.8622 25.1895 20.4621 26.5028 37.1257L9.52017 37.2851L5.94561 37.3192L5.77061 37.3207C5.77061 37.3207 4.47104 33.7515 4.09822 26.8777C3.97343 24.5777 3.95365 21.9093 4.12104 18.8802C4.32952 15.1346 4.82104 10.8394 5.75996 6.01185C5.96387 4.9547 6.19061 3.86969 6.44017 2.76147C6.44017 2.76147 15.1369 1.30809 29.0228 1.10533C29.0243 1.10378 29.0228 1.10997 29.0182 1.12545Z" fill="url(#paint2_linear)"/>
<path opacity="0.5" fill-rule="evenodd" clip-rule="evenodd" d="M27.8846 0.01257C27.8846 0.01257 29.8522 0.00018763 30.2646 0.354634C30.6663 0.699793 28.5861 16.9703 28.6318 25.3036C28.6318 25.3036 29.872 5.76574 30.9402 0.00947442C30.9418 0.00947442 29.3455 -0.0137426 27.8846 0.01257Z" fill="url(#paint3_radial)"/>
<path fill-rule="evenodd" clip-rule="evenodd" d="M7.37144 9.60895L24.0756 8.67253C24.0756 8.67253 24.4164 6.39262 24.8456 4.85566L8.10644 5.99174C8.10797 5.99174 7.54188 7.56431 7.37144 9.60895Z" fill="#9EDCFF"/>
<path opacity="0.2" fill-rule="evenodd" clip-rule="evenodd" d="M26.5028 37.1257L5.77062 37.3191C5.77062 37.3191 4.47257 33.7484 4.09975 26.8761C12.9669 36.9956 24.8471 30.5042 26.0797 26.7709C26.4084 13.4614 28.8797 1.70274 29.0182 1.12386C28.8721 1.86216 25.1895 20.4605 26.5028 37.1257Z" fill="url(#paint4_linear)"/>
<path fill-rule="evenodd" clip-rule="evenodd" d="M26.5028 37.1257C26.5028 37.1257 24.5534 24.4306 29.0182 1.12386C29.0182 1.12386 25.2504 20.4667 26.5028 37.1257Z" fill="url(#paint5_linear)"/>
<g opacity="0.3">
<path opacity="0.3" fill-rule="evenodd" clip-rule="evenodd" d="M25.6598 10.7822C19.3004 11.0686 12.9609 11.6521 6.60913 12.0561C6.65783 11.8022 6.68217 11.6753 6.73391 11.4215C13.078 11.0051 19.4085 10.4015 25.7587 10.1043C25.7191 10.3767 25.6993 10.5129 25.6598 10.7822Z" fill="#B589B6"/>
<path opacity="0.3" fill-rule="evenodd" clip-rule="evenodd" d="M25.4741 12.0112C20.3063 12.2325 15.1521 12.635 9.99344 12.9956C10.036 12.7402 10.0589 12.6133 10.1045 12.3563C15.2602 11.988 20.4113 11.5732 25.5745 11.3472C25.535 11.615 25.5152 11.7481 25.4741 12.0112Z" fill="#B589B6"/>
<path opacity="0.3" fill-rule="evenodd" clip-rule="evenodd" d="M25.1104 14.4119C19.6519 14.6425 14.2056 15.0511 8.75475 15.4024C8.78975 15.1486 8.80801 15.0217 8.84605 14.7678C14.2984 14.4119 19.7478 13.9986 25.2078 13.768C25.1682 14.0264 25.15 14.1549 25.1104 14.4119Z" fill="#B589B6"/>
<path opacity="0.3" fill-rule="evenodd" clip-rule="evenodd" d="M13.6046 13.9119C11.1379 14.0853 8.66961 14.2555 6.1983 14.3948C6.23787 14.141 6.25917 14.0141 6.30178 13.7618C8.77156 13.6209 11.2383 13.446 13.705 13.2711C13.6655 13.5281 13.6442 13.655 13.6046 13.9119Z" fill="#B589B6"/>
<path opacity="0.3" fill-rule="evenodd" clip-rule="evenodd" d="M9.71044 13.0157C8.39262 13.1055 7.73066 13.1488 6.39305 13.2262C6.43718 12.9724 6.46001 12.8455 6.50718 12.5932C7.84327 12.5142 8.5037 12.4693 9.82153 12.378C9.77588 12.6334 9.75457 12.7603 9.71044 13.0157Z" fill="#B589B6"/>
<path opacity="0.3" fill-rule="evenodd" clip-rule="evenodd" d="M8.3713 15.4256C7.43695 15.4844 6.96825 15.5123 6.02325 15.5649C6.05825 15.3111 6.07652 15.1841 6.11456 14.9319C7.05956 14.8792 7.52825 14.8498 8.4626 14.791C8.42608 15.0448 8.40782 15.1718 8.3713 15.4256Z" fill="#B589B6"/>
<path opacity="0.3" fill-rule="evenodd" clip-rule="evenodd" d="M25.2915 13.2201C21.5084 13.3795 17.7315 13.6256 13.953 13.8872C13.9926 13.6303 14.0123 13.5033 14.0534 13.2449C17.8304 12.9771 21.6073 12.7279 25.3904 12.5669C25.3508 12.83 25.331 12.9601 25.2915 13.2201Z" fill="#B589B6"/>
<path opacity="0.3" fill-rule="evenodd" clip-rule="evenodd" d="M24.8533 16.1532C19.3674 16.3946 13.8892 16.7924 8.40938 17.1391C8.43829 16.8853 8.45351 16.7583 8.48547 16.5045C13.9713 16.1562 19.4526 15.7538 24.9461 15.5155C24.9096 15.7708 24.8898 15.8978 24.8533 16.1532Z" fill="#B589B6"/>
<path opacity="0.3" fill-rule="evenodd" clip-rule="evenodd" d="M24.6889 17.3309C20.2424 17.5337 15.8019 17.8278 11.3615 18.1188C11.3889 17.8634 11.4026 17.7365 11.4315 17.4811C15.8795 17.1885 20.3245 16.8929 24.7771 16.6932C24.7421 16.9471 24.7239 17.0756 24.6889 17.3309Z" fill="#B589B6"/>
<path opacity="0.3" fill-rule="evenodd" clip-rule="evenodd" d="M10.972 18.1436C9.90065 18.2132 9.36347 18.2473 8.28304 18.3138C8.3089 18.0584 8.32108 17.9315 8.34847 17.6777C9.43043 17.6111 9.9676 17.5771 11.0404 17.5059C11.013 17.7613 10.9978 17.8882 10.972 18.1436Z" fill="#B589B6"/>
<g opacity="0.3">
<path opacity="0.3" d="M5.61241 18.5351L5.62002 18.4608C5.69306 17.6977 5.73415 17.3247 5.83002 16.5601L5.83611 16.5075L5.88937 16.5044C6.70502 16.4595 7.11132 16.4347 7.91785 16.3852L7.99393 16.3806L7.9848 16.458C7.88741 17.2257 7.84632 17.5987 7.77176 18.3556L7.76567 18.4097L7.71089 18.4128C6.90437 18.4608 6.49959 18.4856 5.68545 18.5305L5.61241 18.5351ZM5.94719 16.6298C5.85893 17.3325 5.81937 17.7039 5.75241 18.3973C6.50111 18.3556 6.90437 18.3323 7.65002 18.2859C7.7185 17.5894 7.76111 17.2179 7.84785 16.5168C7.10828 16.5632 6.7035 16.588 5.94719 16.6298Z" fill="#B589B6"/>
</g>
<path opacity="0.3" fill-rule="evenodd" clip-rule="evenodd" d="M24.4333 19.3492C22.8142 19.4235 21.195 19.5102 19.5774 19.6046C19.6033 19.3446 19.617 19.2161 19.6459 18.9577C21.2666 18.8632 22.8887 18.7766 24.5109 18.7038C24.4789 18.9607 24.4637 19.0908 24.4333 19.3492Z" fill="#B589B6"/>
<path opacity="0.3" fill-rule="evenodd" clip-rule="evenodd" d="M19.2182 19.6247C15.5158 19.8476 11.815 20.0937 8.11256 20.3197C8.13082 20.0628 8.13996 19.9359 8.15974 19.6789C11.8682 19.4498 15.5767 19.2006 19.2852 18.9762C19.2578 19.2362 19.2441 19.3663 19.2182 19.6247Z" fill="#B589B6"/>
<path opacity="0.3" fill-rule="evenodd" clip-rule="evenodd" d="M24.2994 20.5519C21.8707 20.6726 19.442 20.8088 17.0133 20.9543C17.0346 20.6927 17.0452 20.5627 17.0681 20.3012C19.5013 20.1541 21.9346 20.0164 24.3694 19.8972C24.342 20.1588 24.3268 20.2903 24.2994 20.5519Z" fill="#B589B6"/>
<path opacity="0.3" fill-rule="evenodd" clip-rule="evenodd" d="M16.6161 20.9791C13.7568 21.1556 10.8989 21.3367 8.03958 21.5085C8.05328 21.25 8.06089 21.1215 8.0761 20.8646C10.94 20.6912 13.8039 20.5071 16.6694 20.3275C16.6481 20.5875 16.6374 20.7176 16.6161 20.9791Z" fill="#B589B6"/>
<g opacity="0.3">
<path opacity="0.3" d="M5.38869 21.7236L5.39173 21.6524C5.42825 20.8816 5.45108 20.5054 5.5089 19.7377L5.51347 19.682L5.56977 19.6789C6.38238 19.634 6.78717 19.6093 7.59064 19.5613L7.66369 19.5566L7.6576 19.6309C7.59673 20.3986 7.57238 20.7748 7.53282 21.5456L7.52977 21.6028L7.47347 21.6059C6.67303 21.6524 6.26977 21.6756 5.46021 21.7205L5.38869 21.7236ZM5.63217 19.8043C5.5789 20.5085 5.55608 20.8831 5.5226 21.5873C6.26825 21.5471 6.66847 21.5239 7.40956 21.4805C7.44608 20.7717 7.47043 20.3971 7.52673 19.6944C6.78564 19.7377 6.3839 19.7609 5.63217 19.8043Z" fill="#B589B6"/>
</g>
<path opacity="0.3" fill-rule="evenodd" clip-rule="evenodd" d="M23.9189 26.1627C22.3408 26.2277 20.7628 26.2943 19.1832 26.3624C19.1863 26.076 19.1893 25.9336 19.1954 25.6504C20.778 25.5776 22.3606 25.5049 23.9432 25.4368C23.9326 25.7247 23.928 25.8702 23.9189 26.1627Z" fill="#B589B6"/>
<path opacity="0.3" fill-rule="evenodd" clip-rule="evenodd" d="M13.9227 27.8823C11.952 27.9458 9.98135 28.0077 8.00918 28.0665C7.997 27.7972 7.99244 27.6625 7.98331 27.3947C9.95852 27.3251 11.9337 27.2539 13.909 27.1781C13.9135 27.4582 13.9166 27.5991 13.9227 27.8823Z" fill="#B589B6"/>
<path opacity="0.3" fill-rule="evenodd" clip-rule="evenodd" d="M18.8333 26.3778C16.1322 26.4939 13.4311 26.61 10.7285 26.7214C10.724 26.449 10.7224 26.3143 10.7209 26.045C13.4296 25.9227 16.1368 25.7943 18.8455 25.6689C18.8394 25.9491 18.8379 26.0914 18.8333 26.3778Z" fill="#B589B6"/>
<path opacity="0.3" fill-rule="evenodd" clip-rule="evenodd" d="M10.3282 26.7369C9.38933 26.7756 8.91759 26.7942 7.96803 26.8298C7.96194 26.5636 7.9589 26.4304 7.95433 26.1642C8.90542 26.124 9.37716 26.1023 10.3191 26.0605C10.3222 26.3298 10.3237 26.466 10.3282 26.7369Z" fill="#B589B6"/>
<path opacity="0.3" fill-rule="evenodd" clip-rule="evenodd" d="M23.89 27.5387C21.548 27.6207 19.2061 27.7028 16.8641 27.7832C16.8611 27.4938 16.8596 27.3499 16.858 27.0635C19.2061 26.9706 21.5541 26.8778 23.9022 26.788C23.8961 27.0852 23.893 27.2353 23.89 27.5387Z" fill="#B589B6"/>
<path opacity="0.3" fill-rule="evenodd" clip-rule="evenodd" d="M16.4016 27.7987C15.5722 27.8266 15.1583 27.8405 14.329 27.8684C14.3229 27.5836 14.3198 27.4428 14.3168 27.1626C15.1477 27.1301 15.5631 27.1146 16.394 27.0821C16.397 27.3669 16.397 27.5109 16.4016 27.7987Z" fill="#B589B6"/>
<g opacity="0.3">
<path opacity="0.3" d="M5.40692 28.2057L5.40387 28.1423C5.36431 27.3514 5.35061 26.966 5.33387 26.1797L5.33235 26.1162L5.39474 26.1131C6.1967 26.0806 6.59387 26.0636 7.38518 26.0295L7.45061 26.0264L7.45213 26.093C7.46431 26.887 7.47648 27.2771 7.51148 28.0788L7.51453 28.1438L7.45061 28.1454C6.66387 28.1686 6.26822 28.1794 5.46931 28.2027L5.40692 28.2057ZM5.46322 26.2416C5.47844 26.9644 5.49213 27.3483 5.52866 28.0742C6.26366 28.0541 6.65779 28.0417 7.38366 28.0216C7.3517 27.2833 7.33953 26.8948 7.32735 26.1642C6.59844 26.1936 6.20279 26.2106 5.46322 26.2416Z" fill="#B589B6"/>
</g>
<path opacity="0.3" fill-rule="evenodd" clip-rule="evenodd" d="M24.1092 22.6492C22.5098 22.7266 20.9089 22.8102 19.3096 22.8984C19.3263 22.6291 19.3339 22.4945 19.3522 22.2267C20.9561 22.1354 22.56 22.0502 24.1639 21.9744C24.1411 22.2422 24.1305 22.3768 24.1092 22.6492Z" fill="#B589B6"/>
<path opacity="0.3" fill-rule="evenodd" clip-rule="evenodd" d="M18.955 22.917C15.2906 23.1229 11.6278 23.3411 7.96347 23.5423C7.96956 23.2823 7.9726 23.1523 7.98173 22.8922C11.6537 22.6833 15.3256 22.4573 18.9976 22.2468C18.9793 22.5146 18.9717 22.6477 18.955 22.917Z" fill="#B589B6"/>
<path opacity="0.3" fill-rule="evenodd" clip-rule="evenodd" d="M24.0209 23.9184C21.647 24.0314 19.2746 24.1537 16.9007 24.279C16.9098 24.0066 16.9159 23.8704 16.9265 23.5995C19.3065 23.468 21.685 23.3426 24.065 23.2265C24.0467 23.502 24.0376 23.6398 24.0209 23.9184Z" fill="#B589B6"/>
<path opacity="0.3" fill-rule="evenodd" clip-rule="evenodd" d="M16.4319 24.3038C13.603 24.4554 10.7756 24.6071 7.94673 24.7495C7.94825 24.4864 7.94977 24.3564 7.95282 24.0948C10.7878 23.9431 13.6228 23.7837 16.4578 23.6258C16.4472 23.8967 16.4411 24.0313 16.4319 24.3038Z" fill="#B589B6"/>
<g opacity="0.3">
<path opacity="0.3" d="M5.32021 24.943V24.8749C5.31869 24.0948 5.32326 23.7156 5.34456 22.9401L5.34608 22.8813L5.40391 22.8782C6.21195 22.8349 6.61217 22.8132 7.41108 22.7699L7.47956 22.7668L7.47804 22.838C7.45369 23.615 7.44608 23.9957 7.44456 24.782V24.8439L7.38369 24.847C6.58934 24.8857 6.19065 24.9058 5.38565 24.943H5.32021ZM5.46934 23.0036C5.44956 23.7156 5.445 24.0948 5.44652 24.8083C6.1876 24.7727 6.58478 24.7542 7.31826 24.7186C7.3213 23.9957 7.32739 23.615 7.35021 22.903C6.61521 22.9417 6.215 22.9634 5.46934 23.0036Z" fill="#B589B6"/>
</g>
</g>
<path d="M16.6709 36.1552L16.6678 36.0252L25.2063 35.8534L25.2093 35.9834L16.6709 36.1552Z" fill="#B589B6"/>
<path opacity="0.5" fill-rule="evenodd" clip-rule="evenodd" d="M28.1691 38.0001C28.1691 38.0001 27.5482 23.2264 29.5341 12.9954C29.5341 12.997 27.9926 33.2546 28.1691 38.0001Z" fill="url(#paint6_radial)"/>
<defs>
<radialGradient id="paint0_radial" cx="0" cy="0" r="1" gradientUnits="userSpaceOnUse" gradientTransform="translate(18.6318 19.0015) scale(16.2427 16.5209)">
<stop stop-color="#5178FE"/>
<stop offset="0.9944" stop-color="#713592"/>
</radialGradient>
<linearGradient id="paint1_linear" x1="28.1694" y1="19.0053" x2="32.0012" y2="19.0053" gradientUnits="userSpaceOnUse">
<stop stop-color="#60309D"/>
<stop offset="0.9944" stop-color="#530E68"/>
</linearGradient>
<linearGradient id="paint2_linear" x1="24.0564" y1="38.022" x2="10.5867" y2="1.24178" gradientUnits="userSpaceOnUse">
<stop offset="0.0171" stop-color="#E2DCEB"/>
<stop offset="1" stop-color="white"/>
</linearGradient>
<radialGradient id="paint3_radial" cx="0" cy="0" r="1" gradientUnits="userSpaceOnUse" gradientTransform="translate(31.6354 0.126736) scale(8.86168 9.01342)">
<stop stop-color="#9281A4"/>
<stop offset="1"/>
</radialGradient>
<linearGradient id="paint4_linear" x1="16.5593" y1="37.3196" x2="16.5593" y2="1.12447" gradientUnits="userSpaceOnUse">
<stop offset="0.0171" stop-color="#AB9CE3"/>
<stop offset="1" stop-color="#AEB3F3"/>
</linearGradient>
<linearGradient id="paint5_linear" x1="27.549" y1="37.1259" x2="27.549" y2="1.12447" gradientUnits="userSpaceOnUse">
<stop offset="0.0171" stop-color="#AB9CE3"/>
<stop offset="1" stop-color="#AEB3F3"/>
</linearGradient>
<radialGradient id="paint6_radial" cx="0" cy="0" r="1" gradientUnits="userSpaceOnUse" gradientTransform="translate(28.5411 31.1475) scale(8.72722 8.87667)">
<stop stop-color="#9281A4"/>
<stop offset="1"/>
</radialGradient>
</defs>
</svg>
