<svg width="12" height="8" viewBox="0 0 12 8" fill="none" xmlns="http://www.w3.org/2000/svg">
<path d="M11.2387 1.2908L10.7093 0.761196C10.5258 0.587102 10.3115 0.500031 10.0669 0.500031C9.8173 0.500031 9.60557 0.587102 9.4314 0.761196L6.00002 4.19267L2.56867 0.761295C2.39453 0.587201 2.18275 0.50013 1.93321 0.50013C1.68849 0.50013 1.47426 0.587201 1.29077 0.761295L0.768287 1.2909C0.589396 1.46966 0.5 1.68389 0.5 1.93338C0.5 2.18753 0.589495 2.39933 0.768263 2.56875L5.36453 7.16505C5.53405 7.34384 5.74576 7.43331 6 7.43331C6.24947 7.43331 6.46367 7.34386 6.64239 7.16505L11.2387 2.56875C11.4129 2.39456 11.5 2.18278 11.5 1.93338C11.5 1.68854 11.4129 1.47444 11.2387 1.2908Z" fill="#155D97"/>
</svg>
