<svg width="89" height="111" viewBox="0 0 89 111" fill="none" xmlns="http://www.w3.org/2000/svg">
<g clip-path="url(#clip0)">
<path fill-rule="evenodd" clip-rule="evenodd" d="M84.9468 17.8941L87.6857 20.2008C87.6857 20.2008 100.702 77.8947 44.8985 110.507L40.0907 111C40.0907 111 80.987 56.1143 84.9468 17.8941Z" fill="url(#paint0_radial)"/>
<path fill-rule="evenodd" clip-rule="evenodd" d="M40.091 111C40.091 111 -3.3067 88.8435 0.203783 22.2903L27.0581 0C27.0581 0 49.2572 1.00294 84.9556 17.8941C84.9471 17.8941 97.9206 78.3878 40.091 111Z" fill="url(#paint1_linear)"/>
<path fill-rule="evenodd" clip-rule="evenodd" d="M2.11989 24.3714C2.11989 24.3714 -2.1707 77.0924 37.0466 104.765C37.0466 104.765 86.1933 83.8204 81.4109 20.5686C81.4109 20.5686 57.5075 6.76146 26.0658 3.39327C26.0658 3.38491 9.25956 16.7658 2.11989 24.3714Z" fill="url(#paint2_radial)"/>
<path fill-rule="evenodd" clip-rule="evenodd" d="M9.61569 53.2726C9.61569 53.2726 9.61569 58.2706 12.2698 63.8453C12.2698 63.8453 19.5621 60.8114 24.4716 59.6831C24.4716 59.6831 33.5955 57.8527 45.6447 60.2932L47.5781 49.3695C47.5781 49.3695 36.1563 45.642 23.1573 46.7034C23.1573 46.7034 14.6609 49.1105 9.61569 53.2726Z" fill="url(#paint3_linear)"/>
<path fill-rule="evenodd" clip-rule="evenodd" d="M17.51 34.15L22.8181 31.0743L32.7984 33.5399C32.7984 33.5399 31.1704 50.6232 33.4937 74.0334L27.3885 75.6799L23.2251 75.2202C23.2251 75.2202 16.077 55.2367 17.51 34.15Z" fill="url(#paint4_linear)"/>
<g style="mix-blend-mode:multiply" opacity="0.86">
<path fill-rule="evenodd" clip-rule="evenodd" d="M27.0579 0C27.0579 0 11.4557 51.5091 40.0907 111C40.0907 111 95.0204 85.3833 84.9469 17.8857C84.9469 17.8941 64.1384 6.23492 27.0579 0Z" fill="url(#paint5_linear)"/>
</g>
<path fill-rule="evenodd" clip-rule="evenodd" d="M64.1384 11.492C64.1384 11.492 77.3154 16.5568 81.7416 20.0754C81.7416 20.0754 84.7688 37.7438 78.3329 57.602L82.4539 59.2318C82.4539 59.2318 88.7117 36.791 84.9469 17.8857C84.9469 17.8857 72.6347 11.8096 63.7907 9.01807L64.1384 11.492Z" fill="url(#paint6_linear)"/>
<path fill-rule="evenodd" clip-rule="evenodd" d="M73.8473 68.4086C73.8473 68.4086 76.3233 64.213 77.3917 60.0258L81.7416 61.3547C81.7416 61.3547 80.1475 66.8374 77.7139 71.8353L73.8473 68.4086Z" fill="url(#paint7_linear)"/>
</g>
<defs>
<radialGradient id="paint0_radial" cx="0" cy="0" r="1" gradientUnits="userSpaceOnUse" gradientTransform="translate(64.5456 64.4476) scale(37.6107 37.0713)">
<stop stop-color="#B3819D"/>
<stop offset="1" stop-color="#785CA6"/>
</radialGradient>
<linearGradient id="paint1_linear" x1="61.2482" y1="105.803" x2="34.7803" y2="-1.8988" gradientUnits="userSpaceOnUse">
<stop stop-color="#B2C9FF"/>
<stop offset="0.2117" stop-color="#8E7BBB"/>
<stop offset="1" stop-color="#F6ECF2"/>
</linearGradient>
<radialGradient id="paint2_radial" cx="0" cy="0" r="1" gradientUnits="userSpaceOnUse" gradientTransform="translate(30.9904 50.3601) scale(66.0264 65.0794)">
<stop stop-color="#2994FE"/>
<stop offset="0.9944" stop-color="#713592"/>
</radialGradient>
<linearGradient id="paint3_linear" x1="28.5951" y1="63.84" x2="28.5951" y2="46.5118" gradientUnits="userSpaceOnUse">
<stop offset="0.0171" stop-color="#EEEBF4"/>
<stop offset="1" stop-color="white"/>
</linearGradient>
<linearGradient id="paint4_linear" x1="25.4089" y1="75.6849" x2="25.4089" y2="31.078" gradientUnits="userSpaceOnUse">
<stop offset="0.0171" stop-color="#E2DCEB"/>
<stop offset="1" stop-color="white"/>
</linearGradient>
<linearGradient id="paint5_linear" x1="22.811" y1="55.5015" x2="86.1805" y2="55.5015" gradientUnits="userSpaceOnUse">
<stop offset="0.0171" stop-color="#AB9CE3"/>
<stop offset="1" stop-color="white"/>
</linearGradient>
<linearGradient id="paint6_linear" x1="74.972" y1="59.2368" x2="74.972" y2="9.02391" gradientUnits="userSpaceOnUse">
<stop offset="0.0171" stop-color="#E2DCEB"/>
<stop offset="1" stop-color="white"/>
</linearGradient>
<linearGradient id="paint7_linear" x1="73.8466" y1="65.9278" x2="81.7399" y2="65.9278" gradientUnits="userSpaceOnUse">
<stop offset="0.0171" stop-color="#E2DCEB"/>
<stop offset="1" stop-color="white"/>
</linearGradient>
<clipPath id="clip0">
<rect width="89" height="111" fill="white"/>
</clipPath>
</defs>
</svg>
