<svg width="19" height="22" viewBox="0 0 19 22" fill="none" xmlns="http://www.w3.org/2000/svg">
<path fill-rule="evenodd" clip-rule="evenodd" d="M15.5833 10.8057C15.5833 12.6197 16.3781 14.3321 17.7641 15.5036C18.1289 15.8162 18.3333 16.2598 18.3333 16.7292C18.3333 17.6137 17.6138 18.3333 16.7292 18.3333H1.60417C0.719583 18.3333 0 17.6137 0 16.7292C0 16.2598 0.204417 15.8162 0.561 15.5109C1.95525 14.3321 2.75 12.6197 2.75 10.8057V8.25C2.75 5.02425 5.14525 2.354 8.25 1.90667V0.916667C8.25 0.40975 8.66067 0 9.16667 0C9.67267 0 10.0833 0.40975 10.0833 0.916667V1.90667C13.1872 2.354 15.5833 5.02425 15.5833 8.25V10.8057ZM12.5345 19.25C12.2155 20.8166 10.8267 22 9.16666 22C7.50658 22 6.11783 20.8166 5.79883 19.25H12.5345Z" fill="#E5E8ED"/>
</svg>
